<svg aria-hidden="true" style="position: absolute; width: 0; height: 0; overflow: hidden;" version="1.1"
  xmlns="http://www.w3.org/2000/svg"
  xmlns:xlink="http://www.w3.org/1999/xlink">
  <defs>
    <symbol id="icon-jira" viewBox="0 0 32 32">
      <path d="M31.097 15.107l-15.097-15.107-15.107 15.107c-0.227 0.231-0.368 0.548-0.368 0.898s0.14 0.667 0.368 0.898l15.107 15.097 15.097-15.097c0.232-0.229 0.376-0.547 0.376-0.898s-0.144-0.669-0.376-0.898l-0-0zM16 20.735l-4.735-4.735 4.735-4.729 4.731 4.729z"></path>
    </symbol>
    <symbol id="icon-save" viewBox="0 0 20 20">
      <path d="M15.173 2h-11.173c-1.101 0-2 0.9-2 2v12c0 1.1 0.899 2 2 2h12c1.101 0 2-0.9 2-2v-10.873l-2.827-3.127zM14 8c0 0.549-0.45 1-1 1h-6c-0.55 0-1-0.451-1-1v-5h8v5zM13 4h-2v4h2v-4z"></path>
    </symbol>
    <symbol id="icon-ticket" viewBox="0 0 20 20">
      <path d="M4.906 11.541l3.551 3.553 6.518-6.518-3.553-3.551-6.516 6.516zM19.104 6.664l-1.511-1.512c-0.289 0.156-0.618 0.246-0.969 0.246-1.118 0-2.024-0.906-2.024-2.023 0-0.352 0.089-0.682 0.246-0.969l-1.511-1.512c-0.394-0.393-1.038-0.393-1.432 0l-11.010 11.010c-0.393 0.392-0.393 1.037 0 1.432l1.512 1.51c0.289-0.156 0.618-0.246 0.97-0.246 1.117 0 2.023 0.906 2.023 2.025 0 0.35-0.089 0.68-0.246 0.969l1.512 1.51c0.394 0.394 1.037 0.394 1.432 0l11.008-11.008c0.394-0.395 0.394-1.039 0-1.432zM8.457 16.719l-5.176-5.178 8.142-8.141 5.176 5.176-8.142 8.143z"></path>
    </symbol>
    <symbol id="icon-comment" viewBox="0 0 28 28">
      <path d="M28 14c0 5.531-6.266 10-14 10-0.766 0-1.531-0.047-2.266-0.125-2.047 1.813-4.484 3.094-7.187 3.781-0.562 0.156-1.172 0.266-1.781 0.344-0.344 0.031-0.672-0.219-0.75-0.594v-0.016c-0.078-0.391 0.187-0.625 0.422-0.906 0.984-1.109 2.109-2.047 2.844-4.656-3.219-1.828-5.281-4.656-5.281-7.828 0-5.516 6.266-10 14-10s14 4.469 14 10z"></path>
    </symbol>
    <symbol id="icon-comments" viewBox="0 0 28 28">
      <path d="M22 12c0 4.422-4.922 8-11 8-0.953 0-1.875-0.094-2.75-0.25-1.297 0.922-2.766 1.594-4.344 2-0.422 0.109-0.875 0.187-1.344 0.25h-0.047c-0.234 0-0.453-0.187-0.5-0.453v0c-0.063-0.297 0.141-0.484 0.313-0.688 0.609-0.688 1.297-1.297 1.828-2.594-2.531-1.469-4.156-3.734-4.156-6.266 0-4.422 4.922-8 11-8s11 3.578 11 8zM28 16c0 2.547-1.625 4.797-4.156 6.266 0.531 1.297 1.219 1.906 1.828 2.594 0.172 0.203 0.375 0.391 0.313 0.688v0c-0.063 0.281-0.297 0.484-0.547 0.453-0.469-0.063-0.922-0.141-1.344-0.25-1.578-0.406-3.047-1.078-4.344-2-0.875 0.156-1.797 0.25-2.75 0.25-2.828 0-5.422-0.781-7.375-2.063 0.453 0.031 0.922 0.063 1.375 0.063 3.359 0 6.531-0.969 8.953-2.719 2.609-1.906 4.047-4.484 4.047-7.281 0-0.812-0.125-1.609-0.359-2.375 2.641 1.453 4.359 3.766 4.359 6.375z"></path>
    </symbol>
    <symbol id="icon-floppy-o" viewBox="0 0 24 28">
      <path d="M6 24h12v-6h-12v6zM20 24h2v-14c0-0.297-0.266-0.938-0.469-1.141l-4.391-4.391c-0.219-0.219-0.828-0.469-1.141-0.469v6.5c0 0.828-0.672 1.5-1.5 1.5h-9c-0.828 0-1.5-0.672-1.5-1.5v-6.5h-2v20h2v-6.5c0-0.828 0.672-1.5 1.5-1.5h13c0.828 0 1.5 0.672 1.5 1.5v6.5zM14 9.5v-5c0-0.266-0.234-0.5-0.5-0.5h-3c-0.266 0-0.5 0.234-0.5 0.5v5c0 0.266 0.234 0.5 0.5 0.5h3c0.266 0 0.5-0.234 0.5-0.5zM24 10v14.5c0 0.828-0.672 1.5-1.5 1.5h-21c-0.828 0-1.5-0.672-1.5-1.5v-21c0-0.828 0.672-1.5 1.5-1.5h14.5c0.828 0 1.969 0.469 2.562 1.062l4.375 4.375c0.594 0.594 1.062 1.734 1.062 2.562z"></path>
    </symbol>
    <symbol id="icon-comment-o" viewBox="0 0 28 28">
      <path d="M14 6c-6.5 0-12 3.656-12 8 0 2.328 1.563 4.547 4.266 6.078l1.359 0.781-0.422 1.5c-0.297 1.109-0.688 1.969-1.094 2.688 1.578-0.656 3.016-1.547 4.297-2.672l0.672-0.594 0.891 0.094c0.672 0.078 1.359 0.125 2.031 0.125 6.5 0 12-3.656 12-8s-5.5-8-12-8zM28 14c0 5.531-6.266 10-14 10-0.766 0-1.531-0.047-2.266-0.125-2.047 1.813-4.484 3.094-7.187 3.781-0.562 0.156-1.172 0.266-1.781 0.344h-0.078c-0.313 0-0.594-0.25-0.672-0.594v-0.016c-0.078-0.391 0.187-0.625 0.422-0.906 0.984-1.109 2.109-2.047 2.844-4.656-3.219-1.828-5.281-4.656-5.281-7.828 0-5.531 6.266-10 14-10v0c7.734 0 14 4.469 14 10z"></path>
    </symbol>
    <symbol id="icon-comments-o" viewBox="0 0 28 28">
      <path d="M11 6c-4.875 0-9 2.75-9 6 0 1.719 1.156 3.375 3.156 4.531l1.516 0.875-0.547 1.313c0.328-0.187 0.656-0.391 0.969-0.609l0.688-0.484 0.828 0.156c0.781 0.141 1.578 0.219 2.391 0.219 4.875 0 9-2.75 9-6s-4.125-6-9-6zM11 4c6.078 0 11 3.578 11 8s-4.922 8-11 8c-0.953 0-1.875-0.094-2.75-0.25-1.297 0.922-2.766 1.594-4.344 2-0.422 0.109-0.875 0.187-1.344 0.25h-0.047c-0.234 0-0.453-0.187-0.5-0.453v0c-0.063-0.297 0.141-0.484 0.313-0.688 0.609-0.688 1.297-1.297 1.828-2.594-2.531-1.469-4.156-3.734-4.156-6.266 0-4.422 4.922-8 11-8zM23.844 22.266c0.531 1.297 1.219 1.906 1.828 2.594 0.172 0.203 0.375 0.391 0.313 0.688v0c-0.063 0.281-0.297 0.484-0.547 0.453-0.469-0.063-0.922-0.141-1.344-0.25-1.578-0.406-3.047-1.078-4.344-2-0.875 0.156-1.797 0.25-2.75 0.25-2.828 0-5.422-0.781-7.375-2.063 0.453 0.031 0.922 0.063 1.375 0.063 3.359 0 6.531-0.969 8.953-2.719 2.609-1.906 4.047-4.484 4.047-7.281 0-0.812-0.125-1.609-0.359-2.375 2.641 1.453 4.359 3.766 4.359 6.375 0 2.547-1.625 4.797-4.156 6.266z"></path>
    </symbol>
    <symbol id="icon-ticket1" viewBox="0 0 28 28">
      <path d="M16 7.063l4.937 4.937-8.937 8.937-4.937-4.937zM12.703 22.359l9.656-9.656c0.391-0.391 0.391-1.016 0-1.406l-5.656-5.656c-0.375-0.375-1.031-0.375-1.406 0l-9.656 9.656c-0.391 0.391-0.391 1.016 0 1.406l5.656 5.656c0.187 0.187 0.438 0.281 0.703 0.281s0.516-0.094 0.703-0.281zM26.594 12.406l-14.172 14.187c-0.781 0.766-2.063 0.766-2.828 0l-1.969-1.969c1.172-1.172 1.172-3.078 0-4.25s-3.078-1.172-4.25 0l-1.953-1.969c-0.781-0.766-0.781-2.047 0-2.828l14.172-14.156c0.766-0.781 2.047-0.781 2.828 0l1.953 1.953c-1.172 1.172-1.172 3.078 0 4.25s3.078 1.172 4.25 0l1.969 1.953c0.766 0.781 0.766 2.063 0 2.828z"></path>
    </symbol>
    <symbol id="icon-database" viewBox="0 0 24 28">
      <path d="M12 12c4.703 0 9.422-0.844 12-2.656v2.656c0 2.203-5.375 4-12 4s-12-1.797-12-4v-2.656c2.578 1.813 7.297 2.656 12 2.656zM12 24c4.703 0 9.422-0.844 12-2.656v2.656c0 2.203-5.375 4-12 4s-12-1.797-12-4v-2.656c2.578 1.813 7.297 2.656 12 2.656zM12 18c4.703 0 9.422-0.844 12-2.656v2.656c0 2.203-5.375 4-12 4s-12-1.797-12-4v-2.656c2.578 1.813 7.297 2.656 12 2.656zM12 0c6.625 0 12 1.797 12 4v2c0 2.203-5.375 4-12 4s-12-1.797-12-4v-2c0-2.203 5.375-4 12-4z"></path>
    </symbol>
    <symbol id="icon-life-bouy" viewBox="0 0 28 28">
      <path d="M14 0c7.734 0 14 6.266 14 14s-6.266 14-14 14-14-6.266-14-14 6.266-14 14-14zM14 2c-2.031 0-3.953 0.516-5.641 1.406l3.031 3.031c0.828-0.281 1.703-0.438 2.609-0.438 0.922 0 1.781 0.156 2.609 0.438l3.031-3.031c-1.687-0.891-3.609-1.406-5.641-1.406zM3.406 19.641l3.031-3.031c-0.281-0.828-0.438-1.703-0.438-2.609 0-0.922 0.156-1.781 0.438-2.609l-3.031-3.031c-0.891 1.687-1.406 3.609-1.406 5.641s0.516 3.953 1.406 5.641zM14 26c2.031 0 3.953-0.516 5.641-1.406l-3.031-3.031c-0.828 0.281-1.687 0.438-2.609 0.438-0.906 0-1.781-0.156-2.609-0.438l-3.031 3.031c1.687 0.891 3.609 1.406 5.641 1.406zM14 20c3.313 0 6-2.688 6-6s-2.688-6-6-6-6 2.688-6 6 2.688 6 6 6zM21.562 16.609l3.031 3.031c0.891-1.687 1.406-3.609 1.406-5.641s-0.516-3.953-1.406-5.641l-3.031 3.031c0.281 0.828 0.438 1.703 0.438 2.609s-0.156 1.781-0.438 2.609z"></path>
    </symbol>
    <symbol id="icon-wechat" viewBox="0 0 32 28">
      <path d="M9.063 7.203c0-0.859-0.562-1.422-1.422-1.422-0.844 0-1.703 0.562-1.703 1.422 0 0.844 0.859 1.406 1.703 1.406 0.859 0 1.422-0.562 1.422-1.406zM20.672 15.125c0-0.562-0.562-1.125-1.422-1.125-0.562 0-1.125 0.562-1.125 1.125 0 0.578 0.562 1.141 1.125 1.141 0.859 0 1.422-0.562 1.422-1.141zM16.984 7.203c0-0.859-0.562-1.422-1.406-1.422-0.859 0-1.703 0.562-1.703 1.422 0 0.844 0.844 1.406 1.703 1.406 0.844 0 1.406-0.562 1.406-1.406zM26.906 15.125c0-0.562-0.578-1.125-1.422-1.125-0.562 0-1.125 0.562-1.125 1.125 0 0.578 0.562 1.141 1.125 1.141 0.844 0 1.422-0.562 1.422-1.141zM22.75 8.922c-0.359-0.047-0.719-0.063-1.094-0.063-5.375 0-9.625 4.016-9.625 8.953 0 0.828 0.125 1.625 0.359 2.375-0.359 0.031-0.703 0.047-1.062 0.047-1.422 0-2.547-0.281-3.969-0.562l-3.953 1.984 1.125-3.406c-2.828-1.984-4.531-4.547-4.531-7.656 0-5.391 5.094-9.625 11.328-9.625 5.563 0 10.453 3.391 11.422 7.953zM32 17.687c0 2.547-1.687 4.813-3.969 6.516l0.859 2.828-3.109-1.703c-1.141 0.281-2.281 0.578-3.406 0.578-5.391 0-9.625-3.687-9.625-8.219s4.234-8.219 9.625-8.219c5.094 0 9.625 3.687 9.625 8.219z"></path>
    </symbol>
    <symbol id="icon-commenting" viewBox="0 0 28 28">
      <path d="M10 14c0-1.109-0.891-2-2-2s-2 0.891-2 2 0.891 2 2 2 2-0.891 2-2zM16 14c0-1.109-0.891-2-2-2s-2 0.891-2 2 0.891 2 2 2 2-0.891 2-2zM22 14c0-1.109-0.891-2-2-2s-2 0.891-2 2 0.891 2 2 2 2-0.891 2-2zM28 14c0 5.531-6.266 10-14 10-1.141 0-2.25-0.094-3.297-0.281-1.781 1.781-4.109 3-6.797 3.578-0.422 0.078-0.875 0.156-1.344 0.203-0.25 0.031-0.484-0.141-0.547-0.375v0c-0.063-0.25 0.125-0.406 0.313-0.578 0.984-0.922 2.156-1.656 2.562-4.953-2.984-1.828-4.891-4.547-4.891-7.594 0-5.531 6.266-10 14-10s14 4.469 14 10z"></path>
    </symbol>
    <symbol id="icon-commenting-o" viewBox="0 0 28 28">
      <path d="M10 14c0 1.109-0.891 2-2 2s-2-0.891-2-2 0.891-2 2-2 2 0.891 2 2zM16 14c0 1.109-0.891 2-2 2s-2-0.891-2-2 0.891-2 2-2 2 0.891 2 2zM22 14c0 1.109-0.891 2-2 2s-2-0.891-2-2 0.891-2 2-2 2 0.891 2 2zM14 6c-6.5 0-12 3.656-12 8 0 2.328 1.563 4.547 4.266 6.078l1.359 0.781-0.422 1.5c-0.297 1.109-0.688 1.969-1.094 2.688 1.578-0.656 3.016-1.547 4.297-2.672l0.672-0.594 0.891 0.094c0.672 0.078 1.359 0.125 2.031 0.125 6.5 0 12-3.656 12-8s-5.5-8-12-8zM28 14c0 5.531-6.266 10-14 10-0.766 0-1.531-0.047-2.266-0.125-2.047 1.813-4.484 3.094-7.187 3.781-0.562 0.156-1.172 0.266-1.781 0.344h-0.078c-0.313 0-0.594-0.25-0.672-0.594v-0.016c-0.078-0.391 0.187-0.625 0.422-0.906 0.984-1.109 2.109-2.047 2.844-4.656-3.219-1.828-5.281-4.656-5.281-7.828 0-5.516 6.266-10 14-10v0c7.734 0 14 4.484 14 10z"></path>
    </symbol>
    <symbol id="icon-error" viewBox="0 0 24 24">
      <path d="M12.984 12.984v-6h-1.969v6h1.969zM12.984 17.016v-2.016h-1.969v2.016h1.969zM12 2.016q4.125 0 7.055 2.93t2.93 7.055-2.93 7.055-7.055 2.93-7.055-2.93-2.93-7.055 2.93-7.055 7.055-2.93z"></path>
    </symbol>
    <symbol id="icon-error_outline" viewBox="0 0 24 24">
      <path d="M12 20.016q3.281 0 5.648-2.367t2.367-5.648-2.367-5.648-5.648-2.367-5.648 2.367-2.367 5.648 2.367 5.648 5.648 2.367zM12 2.016q4.125 0 7.055 2.93t2.93 7.055-2.93 7.055-7.055 2.93-7.055-2.93-2.93-7.055 2.93-7.055 7.055-2.93zM11.016 6.984h1.969v6h-1.969v-6zM11.016 15h1.969v2.016h-1.969v-2.016z"></path>
    </symbol>
    <symbol id="icon-warning" viewBox="0 0 24 24">
      <path d="M12.984 14.016v-4.031h-1.969v4.031h1.969zM12.984 18v-2.016h-1.969v2.016h1.969zM0.984 21l11.016-18.984 11.016 18.984h-22.031z"></path>
    </symbol>
    <symbol id="icon-av_timer" viewBox="0 0 24 24">
      <path d="M6 12q0-0.422 0.281-0.703t0.703-0.281 0.727 0.281 0.305 0.703-0.305 0.703-0.727 0.281-0.703-0.281-0.281-0.703zM18 12q0 0.422-0.281 0.703t-0.703 0.281-0.727-0.281-0.305-0.703 0.305-0.703 0.727-0.281 0.703 0.281 0.281 0.703zM11.016 3h0.984q3.75 0 6.375 2.625t2.625 6.375-2.625 6.375-6.375 2.625-6.375-2.625-2.625-6.375q0-4.5 3.609-7.172v-0.047l6.797 6.797-1.406 1.406-5.438-5.391q-1.547 1.922-1.547 4.406 0 2.906 2.039 4.945t4.945 2.039 4.945-2.039 2.039-4.945q0-2.625-1.734-4.594t-4.266-2.344v1.922h-1.969v-3.984zM11.016 17.016q0-0.422 0.281-0.727t0.703-0.305 0.703 0.305 0.281 0.727-0.281 0.703-0.703 0.281-0.703-0.281-0.281-0.703z"></path>
    </symbol>
    <symbol id="icon-playlist_add" viewBox="0 0 24 24">
      <path d="M2.016 15.984v-1.969h7.969v1.969h-7.969zM18 14.016h3.984v1.969h-3.984v4.031h-2.016v-4.031h-3.984v-1.969h3.984v-4.031h2.016v4.031zM14.016 6v2.016h-12v-2.016h12zM14.016 9.984v2.016h-12v-2.016h12z"></path>
    </symbol>
    <symbol id="icon-volume_down" viewBox="0 0 24 24">
      <path d="M5.016 9h3.984l5.016-5.016v16.031l-5.016-5.016h-3.984v-6zM18.516 12q0 2.766-2.531 4.031v-8.063q1.031 0.516 1.781 1.711t0.75 2.32z"></path>
    </symbol>
    <symbol id="icon-volume_mute" viewBox="0 0 24 24">
      <path d="M6.984 9h4.031l4.969-5.016v16.031l-4.969-5.016h-4.031v-6z"></path>
    </symbol>
    <symbol id="icon-volume_off" viewBox="0 0 24 24">
      <path d="M12 3.984v4.219l-2.109-2.109zM4.266 3l16.734 16.734-1.266 1.266-2.063-2.063q-1.547 1.313-3.656 1.828v-2.063q1.172-0.328 2.25-1.172l-4.266-4.266v6.75l-5.016-5.016h-3.984v-6h4.734l-4.734-4.734zM18.984 12q0-2.391-1.383-4.219t-3.586-2.484v-2.063q3.047 0.656 5.016 3.117t1.969 5.648q0 2.203-1.031 4.172l-1.5-1.547q0.516-1.266 0.516-2.625zM16.5 12q0 0.422-0.047 0.609l-2.438-2.438v-2.203q1.031 0.516 1.758 1.688t0.727 2.344z"></path>
    </symbol>
    <symbol id="icon-volume_up" viewBox="0 0 24 24">
      <path d="M14.016 3.234q3.047 0.656 5.016 3.117t1.969 5.648-1.969 5.648-5.016 3.117v-2.063q2.203-0.656 3.586-2.484t1.383-4.219-1.383-4.219-3.586-2.484v-2.063zM16.5 12q0 2.813-2.484 4.031v-8.063q1.031 0.516 1.758 1.688t0.727 2.344zM3 9h3.984l5.016-5.016v16.031l-5.016-5.016h-3.984v-6z"></path>
    </symbol>
    <symbol id="icon-playlist_play" viewBox="0 0 24 24">
      <path d="M14.016 14.016l4.969 3-4.969 3v-6zM3.984 14.016h8.016v1.969h-8.016v-1.969zM3.984 6h12v2.016h-12v-2.016zM3.984 9.984h12v2.016h-12v-2.016z"></path>
    </symbol>
    <symbol id="icon-playlist_add_check" viewBox="0 0 24 24">
      <path d="M21.516 11.484l1.5 1.5-6.984 7.031-4.547-4.5 1.5-1.5 3.047 3zM2.016 15.984v-1.969h7.969v1.969h-7.969zM14.016 6v2.016h-12v-2.016h12zM14.016 9.984v2.016h-12v-2.016h12z"></path>
    </symbol>
    <symbol id="icon-chat" viewBox="0 0 24 24">
      <path d="M18 8.016v-2.016h-12v2.016h12zM14.016 14.016v-2.016h-8.016v2.016h8.016zM6 9v2.016h12v-2.016h-12zM20.016 2.016q0.797 0 1.383 0.586t0.586 1.383v12q0 0.797-0.586 1.406t-1.383 0.609h-14.016l-3.984 3.984v-18q0-0.797 0.586-1.383t1.383-0.586h16.031z"></path>
    </symbol>
    <symbol id="icon-comment1" viewBox="0 0 24 24">
      <path d="M18 8.016v-2.016h-12v2.016h12zM18 11.016v-2.016h-12v2.016h12zM18 14.016v-2.016h-12v2.016h12zM21.984 3.984v18l-3.984-3.984h-14.016q-0.797 0-1.383-0.609t-0.586-1.406v-12q0-0.797 0.586-1.383t1.383-0.586h16.031q0.797 0 1.383 0.586t0.586 1.383z"></path>
    </symbol>
    <symbol id="icon-chat_bubble" viewBox="0 0 24 24">
      <path d="M20.016 2.016q0.797 0 1.383 0.586t0.586 1.383v12q0 0.797-0.586 1.406t-1.383 0.609h-14.016l-3.984 3.984v-18q0-0.797 0.586-1.383t1.383-0.586h16.031z"></path>
    </symbol>
    <symbol id="icon-chat_bubble_outline" viewBox="0 0 24 24">
      <path d="M20.016 15.984v-12h-16.031v14.016l2.016-2.016h14.016zM20.016 2.016q0.797 0 1.383 0.586t0.586 1.383v12q0 0.797-0.586 1.406t-1.383 0.609h-14.016l-3.984 3.984v-18q0-0.797 0.586-1.383t1.383-0.586h16.031z"></path>
    </symbol>
    <symbol id="icon-list_alt" viewBox="0 0 24 24">
      <path d="M6.984 15h2.016v2.016h-2.016v-2.016zM6.984 11.016h2.016v1.969h-2.016v-1.969zM6.984 6.984h2.016v2.016h-2.016v-2.016zM11.016 15h6v2.016h-6v-2.016zM11.016 11.016h6v1.969h-6v-1.969zM11.016 6.984h6v2.016h-6v-2.016zM20.109 3q0.328 0 0.609 0.258t0.281 0.633v16.219q0 0.328-0.281 0.609t-0.609 0.281h-16.219q-0.375 0-0.633-0.281t-0.258-0.609v-16.219q0-0.891 0.891-0.891h16.219zM18.984 5.016h-13.969v13.969h13.969v-13.969z"></path>
    </symbol>
    <symbol id="icon-lightbulb" viewBox="0 0 24 24">
      <path d="M12 2.016q2.906 0 4.945 2.039t2.039 4.945q0 3.516-3 5.719v2.297q0 0.422-0.281 0.703t-0.703 0.281h-6q-0.422 0-0.703-0.281t-0.281-0.703v-2.297q-3-2.063-3-5.719 0-2.906 2.039-4.945t4.945-2.039zM9 21v-0.984h6v0.984q0 0.422-0.281 0.703t-0.703 0.281h-4.031q-0.422 0-0.703-0.281t-0.281-0.703z"></path>
    </symbol>
    <symbol id="icon-add" viewBox="0 0 24 24">
      <path d="M18.984 12.984h-6v6h-1.969v-6h-6v-1.969h6v-6h1.969v6h6v1.969z"></path>
    </symbol>
    <symbol id="icon-clear" viewBox="0 0 24 24">
      <path d="M18.984 6.422l-5.578 5.578 5.578 5.578-1.406 1.406-5.578-5.578-5.578 5.578-1.406-1.406 5.578-5.578-5.578-5.578 1.406-1.406 5.578 5.578 5.578-5.578z"></path>
    </symbol>
    <symbol id="icon-create" viewBox="0 0 24 24">
      <path d="M20.719 7.031l-1.828 1.828-3.75-3.75 1.828-1.828q0.281-0.281 0.703-0.281t0.703 0.281l2.344 2.344q0.281 0.281 0.281 0.703t-0.281 0.703zM3 17.25l11.063-11.063 3.75 3.75-11.063 11.063h-3.75v-3.75z"></path>
    </symbol>
    <symbol id="icon-filter_list" viewBox="0 0 24 24">
      <path d="M6 12.984v-1.969h12v1.969h-12zM3 6h18v2.016h-18v-2.016zM9.984 18v-2.016h4.031v2.016h-4.031z"></path>
    </symbol>
    <symbol id="icon-remove" viewBox="0 0 24 24">
      <path d="M18.984 12.984h-13.969v-1.969h13.969v1.969z"></path>
    </symbol>
    <symbol id="icon-access_time" viewBox="0 0 24 24">
      <path d="M12.516 6.984v5.25l4.5 2.672-0.75 1.266-5.25-3.188v-6h1.5zM12 20.016q3.281 0 5.648-2.367t2.367-5.648-2.367-5.648-5.648-2.367-5.648 2.367-2.367 5.648 2.367 5.648 5.648 2.367zM12 2.016q4.125 0 7.055 2.93t2.93 7.055-2.93 7.055-7.055 2.93-7.055-2.93-2.93-7.055 2.93-7.055 7.055-2.93z"></path>
    </symbol>
    <symbol id="icon-now_widgets" viewBox="0 0 24 24">
      <path d="M16.641 1.688l5.672 5.672-5.672 5.625h4.359v8.016h-8.016v-8.016h3.656l-5.625-5.625v3.656h-8.016v-8.016h8.016v4.359zM3 21v-8.016h8.016v8.016h-8.016z"></path>
    </symbol>
    <symbol id="icon-storage" viewBox="0 0 24 24">
      <path d="M3.984 11.016v1.969h2.016v-1.969h-2.016zM2.016 14.016v-4.031h19.969v4.031h-19.969zM6 6.984v-1.969h-2.016v1.969h2.016zM2.016 3.984h19.969v4.031h-19.969v-4.031zM3.984 17.016v1.969h2.016v-1.969h-2.016zM2.016 20.016v-4.031h19.969v4.031h-19.969z"></path>
    </symbol>
    <symbol id="icon-format_list_bulleted" viewBox="0 0 24 24">
      <path d="M6.984 5.016h14.016v1.969h-14.016v-1.969zM6.984 12.984v-1.969h14.016v1.969h-14.016zM6.984 18.984v-1.969h14.016v1.969h-14.016zM3.984 16.5q0.609 0 1.055 0.445t0.445 1.055-0.445 1.055-1.055 0.445-1.055-0.445-0.445-1.055 0.445-1.055 1.055-0.445zM3.984 4.5q0.609 0 1.055 0.422t0.445 1.078-0.445 1.078-1.055 0.422-1.055-0.422-0.445-1.078 0.445-1.078 1.055-0.422zM3.984 10.5q0.609 0 1.055 0.422t0.445 1.078-0.445 1.078-1.055 0.422-1.055-0.422-0.445-1.078 0.445-1.078 1.055-0.422z"></path>
    </symbol>
    <symbol id="icon-format_list_numbered" viewBox="0 0 24 24">
      <path d="M6.984 12.984v-1.969h14.016v1.969h-14.016zM6.984 18.984v-1.969h14.016v1.969h-14.016zM6.984 5.016h14.016v1.969h-14.016v-1.969zM2.016 11.016v-1.031h3v0.938l-1.828 2.063h1.828v1.031h-3v-0.938l1.781-2.063h-1.781zM3 8.016v-3h-0.984v-1.031h1.969v4.031h-0.984zM2.016 17.016v-1.031h3v4.031h-3v-1.031h1.969v-0.469h-0.984v-1.031h0.984v-0.469h-1.969z"></path>
    </symbol>
    <symbol id="icon-insert_comment" viewBox="0 0 24 24">
      <path d="M18 8.016v-2.016h-12v2.016h12zM18 11.016v-2.016h-12v2.016h12zM18 14.016v-2.016h-12v2.016h12zM20.016 2.016q0.797 0 1.383 0.586t0.586 1.383v18l-3.984-3.984h-14.016q-0.797 0-1.383-0.609t-0.586-1.406v-12q0-0.797 0.586-1.383t1.383-0.586h16.031z"></path>
    </symbol>
    <symbol id="icon-mode_comment" viewBox="0 0 24 24">
      <path d="M21.984 3.984v18l-3.984-3.984h-14.016q-0.797 0-1.383-0.609t-0.586-1.406v-12q0-0.797 0.586-1.383t1.383-0.586h16.031q0.797 0 1.383 0.586t0.586 1.383z"></path>
    </symbol>
    <symbol id="icon-add_comment" viewBox="0 0 24 24">
      <path d="M17.016 11.016v-2.016h-4.031v-3.984h-1.969v3.984h-4.031v2.016h4.031v3.984h1.969v-3.984h4.031zM21.984 3.984v18l-3.984-3.984h-14.016q-0.797 0-1.383-0.609t-0.586-1.406v-12q0-0.797 0.586-1.383t1.383-0.586h16.031q0.797 0 1.383 0.586t0.586 1.383z"></path>
    </symbol>
    <symbol id="icon-format_list_numbered_rtl" viewBox="0 0 24 24">
      <path d="M2.016 11.016h13.969v1.969h-13.969v-1.969zM2.016 17.016h13.969v1.969h-13.969v-1.969zM2.016 5.016h13.969v1.969h-13.969v-1.969zM18 11.016v-1.031h3v0.938l-1.781 2.063h1.781v1.031h-3v-0.938l1.781-2.063h-1.781zM18.984 8.016v-3h-0.984v-1.031h2.016v4.031h-1.031zM18 17.016v-1.031h3v4.031h-3v-1.031h2.016v-0.469h-1.031v-1.031h1.031v-0.469h-2.016z"></path>
    </symbol>
    <symbol id="icon-keyboard_arrow_down" viewBox="0 0 24 24">
      <path d="M7.406 8.578l4.594 4.594 4.594-4.594 1.406 1.406-6 6-6-6z"></path>
    </symbol>
    <symbol id="icon-keyboard_arrow_left" viewBox="0 0 24 24">
      <path d="M15.422 16.594l-1.406 1.406-6-6 6-6 1.406 1.406-4.594 4.594z"></path>
    </symbol>
    <symbol id="icon-keyboard_arrow_right" viewBox="0 0 24 24">
      <path d="M8.578 16.594l4.594-4.594-4.594-4.594 1.406-1.406 6 6-6 6z"></path>
    </symbol>
    <symbol id="icon-keyboard_arrow_up" viewBox="0 0 24 24">
      <path d="M7.406 15.422l-1.406-1.406 6-6 6 6-1.406 1.406-4.594-4.594z"></path>
    </symbol>
    <symbol id="icon-watch" viewBox="0 0 24 24">
      <path d="M6 12q0 2.484 1.758 4.242t4.242 1.758 4.242-1.758 1.758-4.242-1.758-4.242-4.242-1.758-4.242 1.758-1.758 4.242zM20.016 12q0 1.641-0.891 3.469t-2.156 2.813l-0.984 5.719h-7.969l-0.984-5.719q-3.047-2.344-3.047-6.281t3.047-6.281l0.984-5.719h7.969l0.984 5.719q3.047 2.438 3.047 6.281z"></path>
    </symbol>
    <symbol id="icon-exposure_plus_1" viewBox="0 0 24 24">
      <path d="M20.016 18h-2.016v-10.641l-3 1.031v-1.688l4.688-1.688h0.328v12.984zM9.984 6.984v4.031h4.031v1.969h-4.031v4.031h-1.969v-4.031h-4.031v-1.969h4.031v-4.031h1.969z"></path>
    </symbol>
    <symbol id="icon-exposure_plus_2" viewBox="0 0 24 24">
      <path d="M8.016 6.984v4.031h3.984v1.969h-3.984v4.031h-2.016v-4.031h-3.984v-1.969h3.984v-4.031h2.016zM16.031 16.313h5.953v1.688h-8.625v-1.5l4.172-4.547q0.844-0.844 1.453-1.875 0.375-0.609 0.375-1.313 0-0.75-0.516-1.453-0.469-0.609-1.406-0.609-0.984 0-1.641 0.656-0.516 0.516-0.516 1.641h-2.156q0-1.688 1.125-2.813 0.656-0.656 1.359-0.891 0.844-0.281 1.875-0.281h0.047q2.766 0 3.703 2.063 0.281 0.609 0.281 1.453 0 1.125-0.75 2.344-0.563 0.938-0.797 1.172-0.656 0.75-1.078 1.172z"></path>
    </symbol>
    <symbol id="icon-navigate_before" viewBox="0 0 24 24">
      <path d="M15.422 7.406l-4.594 4.594 4.594 4.594-1.406 1.406-6-6 6-6z"></path>
    </symbol>
    <symbol id="icon-navigate_next" viewBox="0 0 24 24">
      <path d="M9.984 6l6 6-6 6-1.406-1.406 4.594-4.594-4.594-4.594z"></path>
    </symbol>
    <symbol id="icon-timelapse" viewBox="0 0 24 24">
      <path d="M12 20.016q3.281 0 5.648-2.367t2.367-5.648-2.367-5.648-5.648-2.367-5.648 2.367-2.367 5.648 2.367 5.648 5.648 2.367zM12 2.016q4.125 0 7.055 2.93t2.93 7.055-2.93 7.055-7.055 2.93-7.055-2.93-2.93-7.055 2.93-7.055 7.055-2.93zM16.219 7.781q0.75 0.75 1.266 1.969t0.516 2.25-0.492 2.25-1.242 1.969q-1.734 1.781-4.219 1.781t-4.266-1.781l4.219-4.219v-6q1.031 0 2.25 0.516t1.969 1.266z"></path>
    </symbol>
    <symbol id="icon-timer_10" viewBox="0 0 24 24">
      <path d="M12.891 13.219v-2.531q0-1.688-0.469-2.484-0.328-0.703-1.406-0.703-0.469 0-0.844 0.141-1.078 0.656-1.078 3.094v2.484q0 1.125 0.094 1.547 0.047 0.234 0.422 0.984t1.406 0.75 1.406-0.75q0.281-0.563 0.375-0.984t0.094-1.547zM7.125 11.016q0-5.109 3.891-5.109 1.922 0 2.813 1.125 1.031 1.313 1.031 3.984v1.922q0 5.156-3.844 5.156-3.891 0-3.891-5.156v-1.922zM20.438 10.453q-1.406 0-1.406 1.078 0 0.656 0.891 0.938 0.281 0.094 0.891 0.234 0.422 0.094 1.313 0.375 0.375 0.141 1.031 0.563 0.375 0.234 0.609 0.75 0.234 0.469 0.234 0.984 0 1.734-2.063 2.438-0.563 0.188-1.406 0.188-2.672 0-3.469-1.828-0.234-0.563-0.234-1.031h1.922q0 0.656 0.516 1.031t1.266 0.375q1.547 0 1.547-1.078 0-0.281-0.141-0.492t-0.281-0.281-0.469-0.211-1.148-0.352-1.102-0.305q-0.375-0.141-0.938-0.516-0.891-0.609-0.891-1.688 0-1.781 1.969-2.438 0.563-0.188 1.359-0.188 1.641 0 2.578 0.797 0.938 0.75 0.938 1.969h-1.969q0-0.984-0.844-1.172-0.563-0.141-0.703-0.141zM0 7.734l4.734-1.734h0.281v12h-2.016v-9.609l-3 1.031v-1.688z"></path>
    </symbol>
    <symbol id="icon-timer_3" viewBox="0 0 24 24">
      <path d="M17.531 10.453q-0.609 0-1.031 0.281t-0.422 0.797v0.047q0 0.563 0.938 0.891 0.328 0.141 0.844 0.234t1.359 0.375q0.375 0.141 1.031 0.563 0.328 0.234 0.609 0.75 0.234 0.469 0.234 0.984 0 1.734-2.063 2.438-0.563 0.188-1.453 0.188-2.625 0-3.422-1.828-0.234-0.563-0.234-1.031h1.875q0 0.609 0.539 1.008t1.289 0.398q1.547 0 1.547-1.078 0-0.281-0.141-0.492t-0.281-0.281-0.469-0.211q-0.234-0.094-0.984-0.281-1.313-0.281-2.25-0.891-0.844-0.563-0.844-1.688 0-1.781 1.969-2.438 0.563-0.188 1.359-0.188 1.641 0 2.578 0.797 0.938 0.75 0.938 1.969h-1.969q0-0.938-0.891-1.172-0.563-0.141-0.656-0.141zM10.078 11.859q1.969 0.656 1.969 2.719 0 1.734-1.125 2.578-1.078 0.938-2.813 0.938t-2.836-0.891-1.102-2.484h2.016q0 0.938 0.516 1.313 0.609 0.469 1.406 0.469 1.969 0 1.969-1.922t-2.156-1.922h-1.219v-1.547h1.172q1.5 0 1.922-1.078 0.094-0.234 0.094-0.75 0-1.781-1.781-1.781-1.219 0-1.688 0.938-0.141 0.281-0.141 0.703h-1.969q0-2.109 2.25-3 0.797-0.234 1.547-0.234 1.781 0 2.766 0.844t0.984 2.531-1.781 2.578z"></path>
    </symbol>
    <symbol id="icon-timer" viewBox="0 0 24 24">
      <path d="M12 20.016q2.906 0 4.945-2.063t2.039-4.969-2.039-4.945-4.945-2.039-4.945 2.039-2.039 4.945 2.039 4.969 4.945 2.063zM19.031 7.406q0.797 1.031 1.383 2.648t0.586 2.93q0 3.703-2.625 6.352t-6.375 2.648-6.375-2.648-2.625-6.352 2.625-6.352 6.375-2.648q1.266 0 2.93 0.609t2.695 1.406l1.406-1.453q0.75 0.609 1.406 1.406zM11.016 14.016v-6h1.969v6h-1.969zM15 0.984v2.016h-6v-2.016h6z"></path>
    </symbol>
    <symbol id="icon-timer_off" viewBox="0 0 24 24">
      <path d="M12 20.016q1.828 0 3.516-0.984l-9.563-9.563q-0.938 1.594-0.938 3.516 0 2.906 2.039 4.969t4.945 2.063zM3 3.984l17.766 17.766-1.266 1.266-2.531-2.531q-2.344 1.5-4.969 1.5-3.75 0-6.375-2.648t-2.625-6.352q0-1.125 0.445-2.602t1.055-2.367l-2.766-2.766zM11.016 9.422v-1.406h1.969v3.422zM15 0.984v2.016h-6v-2.016h6zM19.031 4.547l1.406 1.406-1.406 1.453q1.969 2.484 1.969 5.578v0.047q0 1.125-0.445 2.578t-1.055 2.344l-1.453-1.453q0.938-1.594 0.938-3.516 0-2.906-2.039-4.945t-4.945-2.039q-1.875 0-3.469 0.938l-1.5-1.453q2.391-1.5 4.969-1.5 1.313 0 2.953 0.586t2.672 1.383z"></path>
    </symbol>
    <symbol id="icon-location_history" viewBox="0 0 24 24">
      <path d="M12 18.281q1.641 0 3.375-0.938t2.625-2.25q-0.047-1.313-2.109-2.203t-3.891-0.891-3.891 0.867-2.109 2.227q0.891 1.313 2.625 2.25t3.375 0.938zM12 3.984q-1.219 0-2.109 0.891t-0.891 2.109 0.891 2.109 2.109 0.891 2.109-0.891 0.891-2.109-0.891-2.109-2.109-0.891zM12 2.016q3.75 0 6.375 2.648t2.625 6.352q0 3.094-1.898 5.484t-4.805 3.188l-2.297 2.297-2.297-2.297q-2.906-0.797-4.805-3.188t-1.898-5.484q0-3.703 2.625-6.352t6.375-2.648z"></path>
    </symbol>
    <symbol id="icon-sms_failed" viewBox="0 0 24 24">
      <path d="M12.984 9.984v-3.984h-1.969v3.984h1.969zM12.984 14.016v-2.016h-1.969v2.016h1.969zM20.016 2.016q0.797 0 1.383 0.586t0.586 1.383v12q0 0.797-0.586 1.406t-1.383 0.609h-14.016l-3.984 3.984v-18q0-0.797 0.586-1.383t1.383-0.586h16.031z"></path>
    </symbol>
    <symbol id="icon-bubble_chart" viewBox="0 0 24 24">
      <path d="M10.406 8.813q0-2.016 1.383-3.422t3.398-1.406 3.422 1.406 1.406 3.422-1.406 3.398-3.422 1.383-3.398-1.383-1.383-3.398zM12.797 18q0-0.844 0.586-1.43t1.43-0.586 1.406 0.586 0.563 1.43-0.563 1.43-1.406 0.586-1.43-0.586-0.586-1.43zM3.984 14.391q0-1.313 0.938-2.25t2.297-0.938q1.313 0 2.25 0.914t0.938 2.273-0.938 2.273-2.25 0.914q-1.359 0-2.297-0.938t-0.938-2.25z"></path>
    </symbol>
    <symbol id="icon-change_history" viewBox="0 0 24 24">
      <path d="M12 3.984l9.984 16.031h-19.969zM12 7.781l-6.375 10.219h12.75z"></path>
    </symbol>
    <symbol id="icon-history" viewBox="0 0 24 24">
      <path d="M12 8.016h1.5v4.219l3.516 2.109-0.75 1.219-4.266-2.578v-4.969zM12.984 3q3.703 0 6.352 2.625t2.648 6.375-2.648 6.375-6.352 2.625q-1.547 0-3.398-0.773t-2.93-1.852l1.406-1.453q2.063 2.063 4.922 2.063 2.906 0 4.969-2.039t2.063-4.945-2.063-4.945-4.969-2.039-4.945 2.039-2.039 4.945h3l-4.031 4.031-0.094-0.141-3.891-3.891h3q0-3.75 2.648-6.375t6.352-2.625z"></path>
    </symbol>
    <symbol id="icon-settings" viewBox="0 0 24 24">
      <path d="M12 15.516q1.453 0 2.484-1.031t1.031-2.484-1.031-2.484-2.484-1.031-2.484 1.031-1.031 2.484 1.031 2.484 2.484 1.031zM19.453 12.984l2.109 1.641q0.328 0.234 0.094 0.656l-2.016 3.469q-0.188 0.328-0.609 0.188l-2.484-0.984q-0.984 0.703-1.688 0.984l-0.375 2.625q-0.094 0.422-0.469 0.422h-4.031q-0.375 0-0.469-0.422l-0.375-2.625q-0.891-0.375-1.688-0.984l-2.484 0.984q-0.422 0.141-0.609-0.188l-2.016-3.469q-0.234-0.422 0.094-0.656l2.109-1.641q-0.047-0.328-0.047-0.984t0.047-0.984l-2.109-1.641q-0.328-0.234-0.094-0.656l2.016-3.469q0.188-0.328 0.609-0.188l2.484 0.984q0.984-0.703 1.688-0.984l0.375-2.625q0.094-0.422 0.469-0.422h4.031q0.375 0 0.469 0.422l0.375 2.625q0.891 0.375 1.688 0.984l2.484-0.984q0.422-0.141 0.609 0.188l2.016 3.469q0.234 0.422-0.094 0.656l-2.109 1.641q0.047 0.328 0.047 0.984t-0.047 0.984z"></path>
    </symbol>
    <symbol id="icon-view_list" viewBox="0 0 24 24">
      <path d="M9 5.016h12v3.984h-12v-3.984zM9 18.984v-3.984h12v3.984h-12zM9 14.016v-4.031h12v4.031h-12zM3.984 9v-3.984h4.031v3.984h-4.031zM3.984 18.984v-3.984h4.031v3.984h-4.031zM3.984 14.016v-4.031h4.031v4.031h-4.031z"></path>
    </symbol>
    <symbol id="icon-no_meeting_room" viewBox="0 0 24 24">
      <path d="M14.016 11.484l-8.484-8.484h8.484v0.984h4.969v12.516l-1.969-2.016v-8.484h-3v5.484zM11.016 11.016h-1.031v1.969h2.016v-0.984l9.75 9.75-1.313 1.266-6.422-6.469v4.453h-11.016v-2.016h2.016v-11.438l-4.031-3.984 1.266-1.313z"></path>
    </symbol>
    <symbol id="icon-meeting_room" viewBox="0 0 24 24">
      <path d="M9.984 11.016v1.969h2.016v-1.969h-2.016zM14.016 6v15h-11.016v-2.016h2.016v-15.984h9v0.984h4.969v15h2.016v2.016h-3.984v-15h-3z"></path>
    </symbol>
    <symbol id="icon-comment_bank" viewBox="0 0 24 24">
      <path d="M20.016 2.016h-16.031q-0.797 0-1.383 0.586t-0.586 1.383v18l3.984-3.984h14.016q0.797 0 1.383-0.586t0.586-1.43v-12q0-0.797-0.586-1.383t-1.383-0.586zM18.984 12.984l-2.484-1.5-2.484 1.5v-7.969h4.969v7.969z"></path>
    </symbol>
    <symbol id="icon-history_edu" viewBox="0 0 24 24">
      <path d="M9 3.984v1.406q-1.266-0.516-2.625-0.516-1.313 0-2.602 0.516t-2.32 1.547l3.328 3.328h1.078v1.125q0.656 0.609 1.477 0.961t1.664 0.398v2.25h-3v3q0 0.844 0.586 1.43t1.43 0.586h9.984q0.844 0 1.523-0.422t1.078-1.102 0.398-1.477v-13.031h-12zM7.875 10.406v-2.156h-2.25l-1.078-1.031q0.891-0.328 1.828-0.328 2.063 0 3.563 1.453l1.406 1.406-0.188 0.188q-0.797 0.797-1.922 0.797-0.703 0-1.359-0.328zM18.984 17.016q0 0.375-0.281 0.68t-0.703 0.305-0.703-0.305-0.281-0.68v-2.016h-6v-2.578q0.891-0.375 1.547-1.031l0.188-0.188 2.859 2.813h1.406v-1.406l-6-6v-0.609h7.969v11.016z"></path>
    </symbol>
    <symbol id="icon-history_toggle_off" viewBox="0 0 24 24">
      <path d="M15.094 19.359l0.984 1.734q-1.453 0.703-3.094 0.844v-2.016q1.125-0.141 2.109-0.563zM4.078 12.984h-2.016q0.141 1.641 0.844 3.094l1.734-0.984q-0.422-0.984-0.563-2.109zM15.094 4.641l0.984-1.734q-1.453-0.703-3.094-0.844v2.016q1.125 0.141 2.109 0.563zM19.922 11.016h2.016q-0.141-1.641-0.844-3.094l-1.734 0.984q0.422 0.984 0.563 2.109zM8.906 19.359l-0.984 1.734q1.453 0.703 3.094 0.844v-2.016q-1.125-0.141-2.109-0.563zM11.016 4.078v-2.016q-1.641 0.141-3.094 0.844l0.984 1.734q0.984-0.422 2.109-0.563zM18.375 7.172l1.734-1.031q-0.984-1.313-2.297-2.25l-0.984 1.734q0.891 0.656 1.547 1.547zM4.641 8.906l-1.734-0.984q-0.703 1.453-0.844 3.094h2.016q0.141-1.125 0.563-2.109zM19.922 12.984q-0.141 1.125-0.563 2.109l1.734 0.984q0.703-1.453 0.844-3.094h-2.016zM16.828 18.375l1.031 1.734q1.313-0.984 2.25-2.297l-1.734-0.984q-0.656 0.891-1.547 1.547zM7.172 5.625l-0.984-1.734q-1.359 0.984-2.297 2.297l1.734 0.984q0.656-0.844 1.547-1.547zM5.625 16.828l-1.734 0.984q0.984 1.313 2.297 2.297l0.984-1.734q-0.844-0.656-1.547-1.547zM12.984 6.984h-1.969v5.438l4.266 4.266 1.406-1.406-3.703-3.703v-4.594z"></path>
    </symbol>
    <symbol id="icon-mark_chat_read" viewBox="0 0 24 24">
      <path d="M17.344 20.016l-3.563-3.563 1.406-1.406 2.156 2.109 4.219-4.219 1.453 1.406zM12 17.016q0-1.453 0.539-2.719t1.5-2.227 2.227-1.523 2.719-0.563q0.844 0 1.594 0.188t1.406 0.516v-6.703q0-0.797-0.586-1.383t-1.383-0.586h-16.031q-0.797 0-1.383 0.586t-0.586 1.383v18l3.984-3.984h6q0-0.234 0.047-0.516-0.047-0.234-0.047-0.469z"></path>
    </symbol>
    <symbol id="icon-mark_chat_unread" viewBox="0 0 24 24">
      <path d="M21.984 6.984v9q0 0.844-0.586 1.43t-1.383 0.586h-14.016l-3.984 3.984v-18q0-0.797 0.586-1.383t1.383-0.586h10.125q-0.047 0.234-0.070 0.492t-0.023 0.492q0 1.359 0.656 2.508t1.805 1.828 2.508 0.68q0.844 0 1.617-0.281t1.383-0.75zM15.984 3q0 0.844 0.422 1.523t1.102 1.078 1.477 0.398q0.844 0 1.523-0.398t1.078-1.078 0.398-1.523-0.398-1.523-1.078-1.078-1.523-0.398q-0.797 0-1.477 0.398t-1.102 1.078-0.422 1.523z"></path>
    </symbol>
    <symbol id="icon-more_time" viewBox="0 0 24 24">
      <path d="M9.984 8.016v6l4.734 2.906 0.797-1.219-4.031-2.391v-5.297h-1.5zM17.906 12q0.094 0.516 0.094 0.984 0 1.5-0.539 2.766t-1.5 2.227-2.227 1.5-2.719 0.539q-1.5 0-2.766-0.539t-2.227-1.5-1.5-2.227-0.539-2.766q0-1.453 0.539-2.719t1.5-2.227 2.227-1.5 2.766-0.539q1.031 0 1.969 0.281v-2.063q-0.984-0.234-1.969-0.234-1.875 0-3.516 0.703t-2.883 1.945-1.922 2.859-0.68 3.492 0.68 3.516 1.922 2.883 2.883 1.922 3.516 0.68 3.492-0.68 2.859-1.922 1.945-2.883 0.703-3.516q0-0.469-0.094-0.984h-2.016zM20.016 5.016v-3h-2.016v3h-3v1.969h3v3h2.016v-3h3v-1.969h-3z"></path>
    </symbol>
    <symbol id="icon-room_preferences" viewBox="0 0 24 24">
      <path d="M14.016 11.25v-5.25h3v3.984h1.969v-6h-4.969v-0.984h-9v15.984h-2.016v2.016h9.281q-0.609-0.844-0.938-1.852t-0.328-2.133q0-1.781 0.82-3.281t2.18-2.484zM9.984 11.016h2.016v1.969h-2.016v-1.969zM21.703 16.359l1.125-0.984-0.984-1.734-1.453 0.469q-0.469-0.375-1.078-0.609l-0.328-1.5h-1.969l-0.328 1.5q-0.609 0.234-1.078 0.609l-1.453-0.469-0.984 1.734 1.125 0.984q-0.094 0.609 0 1.266l-1.125 0.984 0.984 1.734 1.453-0.469q0.469 0.375 1.078 0.609l0.328 1.5h1.969l0.328-1.453q0.609-0.234 1.078-0.656l1.453 0.516 0.984-1.734-1.125-1.031q0.047-0.375 0.047-0.633t-0.047-0.633zM18 18.984q-0.844 0-1.43-0.586t-0.586-1.383q0-0.844 0.586-1.43t1.43-0.586 1.43 0.586 0.586 1.43q0 0.797-0.586 1.383t-1.43 0.586z"></path>
    </symbol>
    <symbol id="icon-connect_without_contact" viewBox="0 0 24 24">
      <path d="M11.016 14.016h-2.016q0-1.875 0.703-3.516t1.945-2.859 2.859-1.922 3.492-0.703v1.969q-1.453 0-2.719 0.563t-2.227 1.523-1.5 2.227-0.539 2.719zM18 11.016v-2.016q-1.359 0-2.508 0.68t-1.828 1.805-0.68 2.531h2.016q0-0.844 0.398-1.523t1.078-1.078 1.523-0.398zM6.984 3.984q0-0.797-0.586-1.383t-1.383-0.586q-0.844 0-1.43 0.586t-0.586 1.383q0 0.844 0.586 1.43t1.43 0.586q0.797 0 1.383-0.586t0.586-1.43zM11.438 4.5h-1.969q-0.188 1.078-1.008 1.781t-1.945 0.703h-3q-0.656 0-1.078 0.445t-0.422 1.055v2.531h6v-2.297q1.359-0.422 2.32-1.57t1.102-2.648zM18.984 17.016q0.844 0 1.43-0.586t0.586-1.43-0.586-1.43-1.43-0.586q-0.797 0-1.383 0.586t-0.586 1.43 0.586 1.43 1.383 0.586zM20.484 18h-3q-1.125 0-1.945-0.727t-1.008-1.758h-1.969q0.141 1.5 1.102 2.648t2.32 1.57v2.25h6v-2.484q0-0.609-0.422-1.055t-1.078-0.445z"></path>
    </symbol>
    <symbol id="icon-spades" viewBox="0 0 32 32">
      <path d="M25.549 10.88c-6.049-4.496-8.133-8.094-9.549-10.88v0c-0 0-0-0-0-0v0c-1.415 2.785-3.5 6.384-9.549 10.88-10.314 7.665-0.606 18.365 7.93 12.476-0.556 3.654-2.454 6.318-4.381 7.465v1.179h12.001v-1.179c-1.928-1.147-3.825-3.811-4.382-7.465 8.535 5.889 18.244-4.811 7.93-12.476z"></path>
    </symbol>
    <symbol id="icon-clubs" viewBox="0 0 32 32">
      <path d="M24.588 12.274c-1.845 0-3.503 0.769-4.683 2.022-0.5 0.531-1.368 1.16-2.306 1.713 0.441-1.683 1.834-3.803 2.801-4.733 1.239-1.193 2-2.87 2-4.734 0-3.59-2.859-6.503-6.4-6.541-3.541 0.038-6.4 2.951-6.4 6.541 0 1.865 0.761 3.542 2 4.734 0.967 0.93 2.36 3.050 2.801 4.733-0.939-0.553-1.806-1.182-2.306-1.713-1.18-1.253-2.838-2.022-4.683-2.022-3.575 0-6.471 2.927-6.471 6.541s2.897 6.542 6.471 6.542c1.845 0 3.503-0.792 4.683-2.045 0.525-0.558 1.451-1.254 2.447-1.832-0.094 4.615-2.298 8.005-4.541 9.341v1.179h12v-1.179c-2.244-1.335-4.448-4.726-4.541-9.341 0.995 0.578 1.922 1.274 2.447 1.832 1.18 1.253 2.838 2.045 4.683 2.045 3.575 0 6.471-2.928 6.471-6.542s-2.897-6.541-6.471-6.541z"></path>
    </symbol>
    <symbol id="icon-diamonds" viewBox="0 0 32 32">
      <path d="M16 0l-10 16 10 16 10-16z"></path>
    </symbol>
    <symbol id="icon-database1" viewBox="0 0 32 32">
      <path d="M16 0c-8.837 0-16 2.239-16 5v4c0 2.761 7.163 5 16 5s16-2.239 16-5v-4c0-2.761-7.163-5-16-5z"></path>
      <path d="M16 17c-8.837 0-16-2.239-16-5v6c0 2.761 7.163 5 16 5s16-2.239 16-5v-6c0 2.761-7.163 5-16 5z"></path>
      <path d="M16 26c-8.837 0-16-2.239-16-5v6c0 2.761 7.163 5 16 5s16-2.239 16-5v-6c0 2.761-7.163 5-16 5z"></path>
    </symbol>
  </defs>
</svg>
